<?xml version="1.0" standalone="no"?>
<!DOCTYPE svg PUBLIC "-//W3C//DTD SVG 20010904//EN"
 "http://www.w3.org/TR/2001/REC-SVG-20010904/DTD/svg10.dtd">
<svg version="1.0" xmlns="http://www.w3.org/2000/svg"
 width="1200.000000pt" height="1200.000000pt" viewBox="0 0 1200.000000 1200.000000"
 preserveAspectRatio="xMidYMid meet">

<g transform="translate(0.000000,1200.000000) scale(0.100000,-0.100000)"
fill="#CC0000" stroke="none">
<path d="M5875 11803 c-1312 -24 -2588 -504 -3605 -1356 -233 -195 -530 -491
-716 -715 -794 -954 -1255 -2091 -1344 -3317 -15 -193 -15 -637 0 -830 131
-1805 1081 -3427 2595 -4430 824 -547 1783 -873 2775 -945 311 -23 784 -12
1105 26 1692 196 3225 1145 4168 2580 496 754 807 1609 911 2499 51 433 51
955 0 1375 -235 1945 -1420 3627 -3175 4506 -840 420 -1753 624 -2714 607z
m-499 -1325 c-53 -113 -3272 -6811 -3293 -6852 l-15 -29 -50 84 c-78 132 -238
460 -297 609 -372 941 -429 1971 -162 2941 190 688 555 1345 1045 1881 691
756 1607 1254 2635 1433 202 35 188 42 137 -67z m1441 57 c430 -78 847 -217
1233 -409 203 -101 288 -151 500 -292 859 -569 1503 -1414 1827 -2394 337
-1021 302 -2134 -98 -3150 -54 -139 -275 -590 -288 -590 -4 0 -264 521 -578
1158 -600 1216 -2783 5684 -2783 5696 0 11 46 6 187 -19z m-64 -2971 l723
-1479 -724 -3 c-398 -1 -1046 -1 -1441 0 l-716 3 620 1290 c341 710 662 1378
713 1484 51 107 95 191 98 188 3 -2 330 -670 727 -1483z m1860 -3793 c301
-610 547 -1113 547 -1118 0 -4 -43 -46 -96 -93 -1008 -892 -2327 -1300 -3653
-1130 -880 113 -1713 482 -2393 1059 l-107 91 37 78 c20 42 269 560 552 1149
l515 1073 2025 0 2026 0 547 -1109z"/>
</g>
</svg>